<?xml version="1.0" standalone="no"?>
<!DOCTYPE svg PUBLIC "-//W3C//DTD SVG 20010904//EN"
 "http://www.w3.org/TR/2001/REC-SVG-20010904/DTD/svg10.dtd">
<svg version="1.0" xmlns="http://www.w3.org/2000/svg"
 width="327.000000pt" height="512.000000pt" viewBox="0 0 327.000000 512.000000"
 preserveAspectRatio="xMidYMid meet">

<g transform="translate(0.000000,512.000000) scale(0.100000,-0.100000)"
fill="#000000" stroke="none">
<path d="M412 4948 c-74 -191 -106 -388 -91 -566 9 -102 45 -245 79 -312 11
-22 20 -47 20 -56 0 -9 -20 -47 -45 -84 -83 -124 -122 -238 -140 -401 -12
-109 30 -381 101 -656 19 -72 34 -144 34 -160 0 -18 -22 -58 -65 -118 -76
-106 -166 -275 -201 -377 -14 -40 -37 -125 -51 -188 -24 -104 -26 -135 -27
-320 0 -174 3 -220 22 -306 59 -274 189 -541 358 -733 51 -59 55 -67 48 -95
-5 -17 -8 -58 -8 -91 1 -168 174 -286 335 -229 l46 17 134 -66 c202 -100 340
-139 554 -156 264 -20 518 30 763 151 l142 70 40 -16 c96 -38 220 -8 291 71
51 57 63 99 56 203 l-7 87 31 29 c61 57 180 229 238 343 129 254 180 495 168
790 -13 314 -87 539 -262 801 -90 135 -88 106 -22 361 54 208 87 415 87 555 0
158 -47 307 -140 444 -48 71 -48 68 4 215 77 219 71 463 -19 730 -29 88 -42
115 -54 115 -5 0 -21 -30 -36 -67 -55 -140 -184 -318 -294 -409 -75 -63 -209
-146 -261 -163 -30 -9 -47 -7 -115 15 -182 58 -412 90 -568 79 -110 -7 -278
-40 -407 -79 l-85 -26 -101 50 c-206 103 -378 290 -470 512 -20 48 -42 88 -49
88 -7 0 -22 -24 -33 -52z m305 -592 c88 -57 202 -109 345 -160 107 -38 107
-38 149 -22 91 36 245 67 364 73 154 7 270 -8 412 -55 69 -23 118 -35 130 -30
10 4 63 24 118 44 222 80 365 162 468 267 63 65 60 67 58 -48 -3 -90 -15 -145
-51 -220 -76 -158 -193 -239 -660 -461 -80 -37 -174 -84 -209 -104 -63 -34
-168 -126 -189 -165 -11 -19 -13 -18 -39 15 -73 94 -110 119 -352 236 -437
212 -527 266 -617 368 -87 100 -134 233 -134 380 l0 64 68 -68 c37 -37 100
-88 139 -114z m-55 -557 c63 -51 186 -126 264 -160 l52 -22 -30 -56 c-38 -72
-36 -147 5 -210 87 -131 302 -99 348 52 7 20 13 37 15 37 6 0 124 -71 124 -75
0 -2 -29 -52 -65 -111 -36 -59 -65 -117 -65 -129 0 -18 -16 -30 -82 -61 -79
-37 -88 -38 -183 -38 -79 0 -112 5 -155 22 -62 25 -134 79 -175 135 -16 20
-32 37 -35 37 -4 0 -24 -27 -44 -60 -26 -41 -35 -67 -31 -80 12 -39 157 -175
215 -202 106 -50 239 -62 359 -32 81 20 122 41 190 94 29 23 56 38 60 34 4 -5
52 -80 105 -166 54 -87 101 -158 104 -158 6 0 129 195 188 298 10 17 21 32 25
32 4 0 26 -16 50 -36 146 -122 390 -150 558 -65 62 32 145 105 186 165 43 63
43 66 -15 144 l-32 44 -29 -40 c-40 -55 -127 -119 -190 -141 -123 -43 -236
-36 -349 22 -52 27 -66 39 -72 65 -5 17 -34 75 -64 127 -31 53 -55 97 -53 99
12 11 104 66 111 66 4 0 15 -17 23 -37 59 -140 240 -166 342 -50 39 45 54 98
44 153 -8 44 -44 110 -63 116 -6 2 21 18 61 36 93 42 245 136 298 185 l43 39
20 -23 c32 -39 77 -130 96 -194 12 -41 18 -91 17 -160 0 -91 -8 -132 -87 -447
-246 -994 -516 -1546 -989 -2021 l-119 -120 -105 104 c-196 194 -367 422 -515
684 -170 300 -376 872 -483 1336 -20 85 -47 198 -60 252 -37 149 -41 234 -16
339 20 86 54 165 93 221 22 31 13 35 110 -44z m1639 -319 c33 -18 22 -80 -15
-80 -43 0 -61 44 -30 74 18 19 20 19 45 6z m-621 -230 l32 -50 -25 -63 c-14
-34 -30 -62 -36 -62 -7 0 -23 26 -36 58 -12 32 -28 64 -35 72 -10 12 -6 22 20
55 17 22 35 40 40 40 4 0 22 -23 40 -50z m-124 -80 c0 -12 -4 -16 -9 -11 -5 5
-6 14 -3 20 10 15 12 14 12 -9z m9 -39 c-3 -5 -1 -12 5 -16 5 -3 10 -11 10
-18 0 -6 -6 -2 -14 8 -13 18 -13 35 0 35 3 0 3 -4 -1 -9z m70 -121 c3 -5 1
-10 -4 -10 -6 0 -11 5 -11 10 0 6 2 10 4 10 3 0 8 -4 11 -10z m-1158 -629
c-19 -22 -28 -49 -18 -56 7 -4 18 -50 27 -115 1 -8 5 -31 9 -50 5 -19 8 -45 8
-57 -1 -25 -1 -25 21 -17 9 3 13 11 9 17 -3 6 -1 7 5 3 6 -4 20 -2 31 3 17 9
23 -1 66 -107 26 -64 68 -160 92 -212 24 -52 42 -99 39 -105 -2 -6 -46 -35
-97 -65 -82 -46 -194 -118 -333 -214 -48 -32 -49 -31 -70 83 -16 86 -21 235
-9 329 5 46 8 52 25 46 19 -6 19 -5 -1 15 -18 18 -20 29 -15 64 13 83 67 232
128 351 82 161 78 154 88 126 6 -16 4 -28 -5 -39z m2336 31 c29 -32 88 -156
84 -174 -3 -10 -2 -16 2 -14 3 2 15 -17 25 -42 10 -26 26 -67 36 -92 14 -34
50 -190 50 -216 0 -2 -8 -5 -17 -5 -15 -1 -15 -2 -2 -6 30 -8 33 -280 3 -397
l-6 -25 -96 35 c-54 19 -119 46 -146 61 -94 50 -152 51 -205 3 -35 -32 -38
-26 -16 27 20 48 19 52 -15 64 -16 6 -30 13 -30 15 0 2 23 53 52 114 39 84 54
107 64 99 8 -7 14 -6 20 2 4 8 3 9 -4 5 -7 -4 -12 -1 -12 9 0 14 6 16 28 11
15 -4 23 -3 17 1 -20 16 -16 35 5 28 11 -3 20 -2 20 3 0 5 -11 12 -25 14 -16
3 -22 1 -18 -6 4 -8 3 -8 -6 0 -15 13 65 228 83 221 44 -17 58 -18 51 -7 -5 9
-1 10 16 5 24 -7 24 -7 4 9 -14 12 -15 14 -3 10 13 -4 18 4 23 37 8 44 19 62
45 71 8 3 -9 9 -38 13 -60 9 -59 5 -31 107 11 43 19 46 42 20z m-2045 -908
c46 -19 88 -58 112 -104 32 -62 99 -273 106 -332 4 -32 7 -58 8 -58 1 0 37 14
79 30 43 17 82 30 86 30 4 0 53 -52 109 -114 112 -126 357 -359 371 -354 35
12 370 350 449 452 l23 29 37 -18 c20 -10 66 -30 102 -45 l65 -27 2 56 c2 76
61 280 108 370 37 72 148 116 226 91 21 -7 36 -17 33 -21 -3 -5 2 -6 10 -3 19
7 22 -12 4 -20 -7 -3 -3 -3 10 0 17 4 22 1 22 -15 0 -12 4 -21 9 -21 17 0 22
-62 6 -80 -8 -9 -15 -27 -15 -41 0 -16 -3 -20 -8 -11 -6 9 -12 5 -20 -13 -14
-30 -16 -46 -3 -26 5 7 14 10 20 7 14 -9 14 -27 0 -24 -16 4 -33 -62 -20 -75
7 -7 8 -3 5 10 -6 22 11 40 21 23 3 -5 2 -10 -2 -10 -5 0 -9 -8 -10 -17 -4
-59 -6 -63 -24 -47 -9 8 -24 32 -34 54 -17 37 -17 42 -1 83 22 58 20 83 -6
101 -28 20 -52 20 -82 1 -28 -18 -37 -40 -67 -152 -25 -96 -20 -128 21 -151
29 -16 30 -20 30 -89 0 -58 -3 -73 -15 -73 -34 0 -18 -14 105 -90 12 -8 11
-13 -9 -34 -18 -20 -30 -23 -57 -19 -18 3 -54 0 -80 -6 -46 -12 -47 -11 -185
54 -77 36 -142 65 -145 65 -8 0 -362 -222 -391 -246 -23 -18 -27 -30 -34 -110
-4 -49 -8 -123 -8 -165 -1 -87 -3 -89 -96 -89 -97 0 -91 -9 -99 166 -4 85 -9
160 -12 167 -6 17 -128 103 -279 198 -151 94 -119 94 -318 2 -117 -55 -118
-55 -167 -43 -28 7 -61 9 -74 6 -16 -4 -29 1 -45 18 l-22 23 48 36 c27 19 61
41 76 48 28 13 34 24 17 34 -5 3 -10 34 -10 68 0 59 2 63 36 91 36 28 36 30
30 85 -7 63 -40 177 -58 199 -19 22 -50 30 -81 20 -42 -15 -52 -42 -33 -89 23
-56 20 -80 -14 -125 -35 -46 -38 -78 -10 -101 16 -14 20 -30 20 -85 0 -37 -4
-69 -9 -72 -13 -8 -66 38 -112 96 -68 86 -73 215 -13 303 14 22 26 55 28 81 4
49 14 65 70 106 45 33 104 37 164 12z m449 -859 c176 -76 197 -99 209 -228 l7
-77 -80 0 c-118 0 -177 14 -282 67 l-95 48 -12 66 c-7 37 -19 80 -28 96 l-15
30 62 26 c34 14 72 26 85 26 13 1 80 -24 149 -54z m1044 29 l67 -25 -19 -44
c-10 -24 -22 -65 -26 -92 -7 -56 -12 -61 -119 -113 -104 -50 -155 -61 -248
-53 l-76 6 0 65 c0 99 25 142 103 181 75 37 228 101 242 101 5 0 40 -12 76
-26z m-1475 -88 c34 -39 41 -92 18 -133 -38 -71 -115 -80 -174 -20 -29 30 -31
36 -27 86 3 45 9 59 33 78 40 34 117 28 150 -11z m1816 22 c31 -26 48 -63 48
-106 0 -81 -85 -130 -149 -86 -24 17 -61 93 -61 126 0 11 13 33 29 49 24 23
38 29 73 29 24 0 51 -6 60 -12z"/>
<path d="M1535 2496 c-107 -34 -195 -111 -243 -214 -23 -49 -27 -70 -26 -147
0 -104 21 -165 101 -297 53 -88 218 -312 253 -343 l22 -20 30 35 c61 71 185
241 237 324 86 138 106 195 106 301 0 76 -5 99 -27 147 -37 79 -70 120 -132
163 -88 60 -224 82 -321 51z m183 -191 c138 -58 163 -237 47 -333 -37 -30
-119 -56 -147 -48 -7 3 -25 7 -40 10 -38 8 -95 61 -120 109 -27 54 -22 140 12
190 53 77 160 108 248 72z"/>
<path d="M535 1890 c-11 -5 -15 -9 -8 -9 12 -1 12 -18 1 -37 -4 -6 -1 -11 7
-11 8 0 12 4 9 8 -2 4 4 13 15 19 17 8 19 8 15 -4 -3 -8 0 -17 5 -21 6 -3 8
-11 5 -17 -5 -8 -1 -9 10 -5 10 4 20 7 22 7 11 0 1 21 -22 49 -28 33 -29 34
-59 21z m68 -44 c4 -10 1 -13 -8 -9 -8 3 -12 9 -9 14 7 12 11 11 17 -5z"/>
<path d="M500 1870 c0 -5 5 -10 11 -10 5 0 7 5 4 10 -3 6 -8 10 -11 10 -2 0
-4 -4 -4 -10z"/>
<path d="M341 1803 c7 -12 15 -20 18 -17 3 2 -3 12 -13 22 -17 16 -18 16 -5
-5z"/>
<path d="M499 1763 c-13 -16 -12 -17 4 -4 16 13 21 21 13 21 -2 0 -10 -8 -17
-17z"/>
<path d="M445 1730 c-3 -6 1 -7 9 -4 18 7 21 14 7 14 -6 0 -13 -4 -16 -10z"/>
<path d="M2688 1893 c7 -3 16 -2 19 1 4 3 -2 6 -13 5 -11 0 -14 -3 -6 -6z"/>
<path d="M2838 1883 c7 -3 16 -2 19 1 4 3 -2 6 -13 5 -11 0 -14 -3 -6 -6z"/>
<path d="M611 524 c0 -11 3 -14 6 -6 3 7 2 16 -1 19 -3 4 -6 -2 -5 -13z"/>
</g>
</svg>
